<svg width="1500" height="1500" viewBox="0 0 1500 1500" fill="none" xmlns="http://www.w3.org/2000/svg">
<path d="M801.5 539L877 552.5L867.699 813.995L796 899.749L801.5 539Z" fill="#00A1F1"/>
<path d="M794 871.761L869.946 836L871 1074L794.873 1090.15L794 871.761Z" fill="#EA4335"/>
<path fill-rule="evenodd" clip-rule="evenodd" d="M793.824 499C799.135 515.559 802 533.196 802 551.495C802 558.868 801.535 566.134 800.632 573.265L876.675 563.839C876.891 559.587 876.999 555.306 876.999 551C876.999 533.169 875.133 515.774 871.584 499H793.824Z" fill="#00A1F1"/>
<path fill-rule="evenodd" clip-rule="evenodd" d="M871 1073C871 1142.04 815.036 1198 746 1198C676.964 1198 621 1142.04 621 1073C621 1003.96 676.964 948 746 948C761.781 948 776.879 950.924 790.781 956.261L711 1037L711.232 1037.07C701.839 1046.16 696 1058.9 696 1073C696 1100.61 718.386 1123 746 1123C773.614 1123 796 1100.61 796 1073C796 1068.82 795.487 1064.76 794.52 1060.88L811.885 966.753C847.373 988.806 871 1028.14 871 1073Z" fill="#EA4335"/>
<path fill-rule="evenodd" clip-rule="evenodd" d="M377 552C377 579.607 381.475 606.169 389.739 631H464.707C463.969 628.253 463.46 625.413 463.2 622.5L463 623L459 601.5L459.118 601.565C454.486 585.85 452 569.215 452 552C452 455.35 530.35 377 627 377C705.175 377 771.377 428.259 793.831 499H871.371C847.062 386.386 746.886 302 627 302C488.929 302 377 413.929 377 552Z" fill="#FFBB00"/>
<path fill-rule="evenodd" clip-rule="evenodd" d="M390 630.642C445.326 739.128 570.981 794.048 686.772 754.644L686.772 754.644L686.45 753.697L686.449 753.697C597.277 784.044 499.746 734.471 468.609 642.974C464.52 630.957 461.779 618.814 460.305 606.716L390 630.642Z" fill="#34A853"/>
<path d="M522.587 695.908C526.789 688.524 542.015 673.989 548.495 677.677C554.975 681.365 550.256 701.878 546.053 709.263C544.03 712.797 540.86 715.483 537.238 716.73C533.617 717.978 529.839 717.686 526.733 715.918C523.627 714.151 521.446 711.052 520.669 707.301C519.892 703.55 520.581 699.453 522.587 695.908Z" fill="#91DB00"/>
<path d="M522.587 783.687C526.789 791.072 542.015 805.606 548.495 801.919C554.975 798.231 550.256 777.718 546.053 770.333C544.03 766.799 540.86 764.113 537.238 762.865C533.617 761.618 529.839 761.91 526.733 763.677C523.627 765.445 521.446 768.544 520.669 772.295C519.892 776.046 520.581 780.143 522.587 783.687Z" fill="#91DB00"/>
<path d="M566.484 719.974C570.075 712.273 584.074 696.554 590.831 699.705C597.588 702.856 594.545 723.684 590.954 731.385C589.224 735.072 586.281 738.005 582.773 739.542C579.264 741.078 575.475 741.093 572.236 739.583C568.997 738.073 566.573 735.16 565.494 731.485C564.416 727.809 564.772 723.67 566.484 719.974Z" fill="#91DB00"/>
<path d="M569.484 793.314C573.075 801.015 587.074 816.734 593.831 813.583C600.588 810.432 597.545 789.604 593.954 781.903C592.224 778.217 589.281 775.283 585.773 773.746C582.264 772.21 578.475 772.195 575.236 773.705C571.997 775.215 569.573 778.128 568.494 781.803C567.416 785.479 567.772 789.619 569.484 793.314Z" fill="#91DB00"/>
<path d="M611.247 731.931C614.153 723.947 626.728 707.067 633.735 709.617C640.741 712.167 639.525 733.181 636.618 741.165C635.216 744.989 632.541 748.168 629.179 750.004C625.818 751.841 622.044 752.186 618.686 750.964C615.328 749.741 612.659 747.052 611.264 743.484C609.87 739.916 609.863 735.761 611.247 731.931Z" fill="#91DB00"/>
<path d="M616.247 791.65C619.153 799.634 631.728 816.514 638.735 813.964C645.741 811.414 644.525 790.4 641.618 782.416C640.216 778.592 637.541 775.414 634.179 773.577C630.818 771.74 627.044 771.395 623.686 772.617C620.328 773.84 617.659 776.529 616.264 780.097C614.87 783.665 614.863 787.82 616.247 791.65Z" fill="#91DB00"/>
<path d="M653.971 728.683C656.17 720.476 667.227 702.564 674.429 704.494C681.631 706.424 682.25 727.464 680.051 735.671C678.987 739.602 676.599 743.002 673.41 745.124C670.222 747.247 666.493 747.92 663.041 746.995C659.589 746.07 656.696 743.623 654.995 740.19C653.295 736.758 652.927 732.619 653.971 728.683Z" fill="#91DB00"/>
<path d="M661.971 782.806C664.17 791.013 675.227 808.924 682.429 806.994C689.631 805.064 690.25 784.025 688.051 775.817C686.987 771.886 684.599 768.487 681.41 766.364C678.222 764.241 674.493 763.569 671.041 764.493C667.589 765.418 664.696 767.865 662.995 771.298C661.295 774.731 660.927 778.869 661.971 782.806Z" fill="#91DB00"/>
<path d="M977.275 714.992C1017.64 680.96 1073.28 671.46 1122.65 690.166L685.855 1054.42L662.162 980.633L977.275 714.992Z" fill="#EA4335"/>
</svg>
