<svg width="360" height="800" viewBox="0 0 360 800" fill="none" xmlns="http://www.w3.org/2000/svg">
<g clip-path="url(#clip0_225_30)">
<rect width="360" height="800" rx="15" fill="white"/>
<path d="M138.464 350.8C138.464 349.4 138.611 348.227 138.904 347.28C139.198 346.32 139.584 345.547 140.064 344.96C140.544 344.373 141.091 343.953 141.704 343.7C142.331 343.433 142.978 343.3 143.644 343.3C144.311 343.3 144.951 343.433 145.564 343.7C146.191 343.953 146.744 344.373 147.224 344.96C147.704 345.547 148.091 346.32 148.384 347.28C148.678 348.227 148.824 349.4 148.824 350.8C148.824 352.2 148.678 353.38 148.384 354.34C148.091 355.287 147.704 356.053 147.224 356.64C146.744 357.227 146.191 357.653 145.564 357.92C144.938 358.173 144.298 358.3 143.644 358.3C142.978 358.3 142.331 358.173 141.704 357.92C141.091 357.653 140.544 357.227 140.064 356.64C139.584 356.053 139.198 355.287 138.904 354.34C138.611 353.38 138.464 352.2 138.464 350.8ZM140.204 350.8C140.204 352.827 140.491 354.367 141.064 355.42C141.638 356.473 142.498 357 143.644 357C144.791 357 145.651 356.473 146.224 355.42C146.798 354.367 147.084 352.827 147.084 350.8C147.084 348.773 146.798 347.233 146.224 346.18C145.651 345.127 144.791 344.6 143.644 344.6C142.498 344.6 141.638 345.127 141.064 346.18C140.491 347.233 140.204 348.773 140.204 350.8ZM158.821 345.08H155.301V358H153.601V345.08H150.121V343.6H158.821V345.08ZM164.253 343.6C164.986 343.6 165.66 343.693 166.273 343.88C166.886 344.053 167.413 344.333 167.853 344.72C168.293 345.093 168.633 345.567 168.873 346.14C169.113 346.713 169.233 347.393 169.233 348.18C169.233 348.967 169.106 349.653 168.853 350.24C168.613 350.813 168.273 351.293 167.833 351.68C167.393 352.053 166.866 352.333 166.253 352.52C165.64 352.707 164.966 352.8 164.233 352.8H162.713V358H161.013V343.6H164.253ZM162.713 344.9V351.5H164.213C166.4 351.5 167.493 350.393 167.493 348.18C167.493 347.14 167.226 346.333 166.693 345.76C166.173 345.187 165.373 344.9 164.293 344.9H162.713Z" fill="#404040"/>
<path d="M186.259 355.62C185.885 356.42 185.372 357.067 184.719 357.56C184.065 358.053 183.205 358.3 182.139 358.3C181.605 358.3 181.039 358.2 180.439 358C179.852 357.787 179.305 357.4 178.799 356.84C178.292 356.28 177.872 355.513 177.539 354.54C177.205 353.567 177.039 352.32 177.039 350.8C177.039 349.307 177.199 348.073 177.519 347.1C177.839 346.127 178.245 345.36 178.739 344.8C179.245 344.24 179.799 343.853 180.399 343.64C180.999 343.413 181.585 343.3 182.159 343.3C182.679 343.3 183.145 343.367 183.559 343.5C183.985 343.633 184.359 343.813 184.679 344.04C184.999 344.253 185.272 344.507 185.499 344.8C185.739 345.093 185.932 345.4 186.079 345.72L184.579 346.3C184.365 345.753 184.065 345.34 183.679 345.06C183.305 344.78 182.799 344.64 182.159 344.64C181.705 344.64 181.272 344.74 180.859 344.94C180.459 345.127 180.105 345.46 179.799 345.94C179.492 346.407 179.245 347.033 179.059 347.82C178.885 348.607 178.799 349.6 178.799 350.8C178.799 351.987 178.892 352.973 179.079 353.76C179.265 354.547 179.512 355.173 179.819 355.64C180.139 356.107 180.499 356.44 180.899 356.64C181.312 356.84 181.739 356.94 182.179 356.94C182.912 356.94 183.472 356.76 183.859 356.4C184.245 356.027 184.559 355.56 184.799 355L186.259 355.62ZM188.539 352.6C188.539 351.493 188.666 350.573 188.919 349.84C189.186 349.107 189.526 348.527 189.939 348.1C190.366 347.66 190.839 347.353 191.359 347.18C191.893 346.993 192.419 346.9 192.939 346.9C193.446 346.9 193.959 346.987 194.479 347.16C194.999 347.333 195.466 347.64 195.879 348.08C196.306 348.507 196.653 349.087 196.919 349.82C197.186 350.553 197.319 351.48 197.319 352.6C197.319 353.72 197.186 354.64 196.919 355.36C196.666 356.08 196.333 356.653 195.919 357.08C195.506 357.493 195.033 357.787 194.499 357.96C193.979 358.12 193.459 358.2 192.939 358.2C192.433 358.2 191.913 358.12 191.379 357.96C190.859 357.787 190.386 357.487 189.959 357.06C189.546 356.633 189.206 356.06 188.939 355.34C188.673 354.62 188.539 353.707 188.539 352.6ZM190.219 352.6C190.219 354.12 190.466 355.227 190.959 355.92C191.466 356.613 192.133 356.96 192.959 356.96C193.786 356.96 194.439 356.62 194.919 355.94C195.413 355.26 195.659 354.147 195.659 352.6C195.659 351.827 195.593 351.16 195.459 350.6C195.326 350.04 195.139 349.58 194.899 349.22C194.659 348.847 194.373 348.573 194.039 348.4C193.706 348.227 193.339 348.14 192.939 348.14C192.153 348.14 191.499 348.507 190.979 349.24C190.473 349.96 190.219 351.08 190.219 352.6ZM199.848 352.62C199.848 350.727 200.195 349.3 200.888 348.34C201.595 347.38 202.575 346.9 203.828 346.9C204.775 346.9 205.515 347.173 206.048 347.72V343.3H207.648V358H206.248L206.168 356.64C205.821 357.133 205.408 357.52 204.928 357.8C204.448 358.067 203.908 358.2 203.308 358.2C202.828 358.2 202.375 358.1 201.948 357.9C201.521 357.7 201.155 357.38 200.848 356.94C200.541 356.487 200.295 355.907 200.108 355.2C199.935 354.493 199.848 353.633 199.848 352.62ZM203.688 356.88C204.155 356.88 204.575 356.76 204.948 356.52C205.335 356.28 205.701 355.933 206.048 355.48V349C205.741 348.68 205.421 348.453 205.088 348.32C204.768 348.173 204.455 348.1 204.148 348.1C203.761 348.1 203.408 348.18 203.088 348.34C202.768 348.5 202.488 348.76 202.248 349.12C202.021 349.48 201.841 349.953 201.708 350.54C201.588 351.127 201.528 351.853 201.528 352.72C201.528 353.52 201.581 354.187 201.688 354.72C201.795 355.253 201.941 355.68 202.128 356C202.315 356.32 202.541 356.547 202.808 356.68C203.075 356.813 203.368 356.88 203.688 356.88ZM218.692 356.18C218.345 356.727 217.859 357.2 217.232 357.6C216.605 358 215.825 358.2 214.892 358.2C214.239 358.2 213.645 358.093 213.112 357.88C212.579 357.653 212.119 357.313 211.732 356.86C211.345 356.407 211.045 355.84 210.832 355.16C210.619 354.467 210.512 353.647 210.512 352.7C210.512 351.687 210.619 350.813 210.832 350.08C211.059 349.347 211.365 348.747 211.752 348.28C212.152 347.8 212.612 347.453 213.132 347.24C213.665 347.013 214.232 346.9 214.832 346.9C215.499 346.9 216.079 347.013 216.572 347.24C217.079 347.453 217.499 347.807 217.832 348.3C218.165 348.78 218.412 349.4 218.572 350.16C218.745 350.92 218.832 351.84 218.832 352.92H212.152C212.165 353.68 212.245 354.32 212.392 354.84C212.552 355.347 212.759 355.753 213.012 356.06C213.265 356.367 213.559 356.587 213.892 356.72C214.239 356.853 214.605 356.92 214.992 356.92C215.312 356.92 215.599 356.873 215.852 356.78C216.119 356.673 216.352 356.547 216.552 356.4C216.752 356.253 216.925 356.093 217.072 355.92C217.219 355.733 217.339 355.56 217.432 355.4L218.692 356.18ZM214.832 348.14C214.085 348.14 213.485 348.42 213.032 348.98C212.579 349.54 212.299 350.427 212.192 351.64H217.172C217.145 350.987 217.072 350.44 216.952 350C216.845 349.547 216.692 349.187 216.492 348.92C216.292 348.64 216.052 348.44 215.772 348.32C215.505 348.2 215.192 348.14 214.832 348.14Z" fill="#25AD49"/>
<path d="M244.143 171.075V226.237C244.143 232.91 238.725 238.328 232.053 238.328H128.718C122.045 238.328 116.627 232.91 116.627 226.237V171.075C116.627 164.402 122.045 158.985 128.718 158.985H232.053C238.725 158.985 244.143 164.402 244.143 171.075Z" fill="white"/>
<path d="M180.11 203.777C177.729 203.777 175.421 203.083 173.435 201.769L116.299 163.983C116.556 162.834 117.13 161.776 117.98 160.916C119.185 159.696 120.793 159.023 122.508 159.023H237.818C240.845 159.023 243.385 161.147 244.024 163.983L186.774 201.775C184.791 203.084 182.486 203.777 180.11 203.777Z" fill="#C2D3DD"/>
<path d="M115.101 232.441L171.235 194.564C176.592 190.948 183.608 190.948 188.966 194.564L245.1 232.441V232.56C245.1 237.593 241.02 241.674 235.986 241.674H124.214C119.134 241.674 115.035 237.521 115.101 232.441Z" fill="#EEFFF4"/>
<path d="M180.11 200.19C177.73 200.19 175.421 199.554 173.436 198.352L116.3 163.763C116.556 162.711 117.131 161.742 117.981 160.955C119.185 159.838 120.793 159.222 122.508 159.222H237.819C240.846 159.222 243.386 161.167 244.025 163.763L186.774 198.357C184.792 199.555 182.486 200.19 180.11 200.19ZM237.819 161.988C238.702 161.988 239.505 162.304 240.103 162.818L185.11 196.048C183.622 196.947 181.892 197.423 180.109 197.423C178.323 197.423 176.592 196.946 175.103 196.044L120.22 162.819C120.842 162.282 121.65 161.988 122.508 161.988H237.819ZM237.819 156.455H122.508C117.278 156.455 113.056 160.37 113.125 165.158L171.768 200.66C174.297 202.191 177.203 202.956 180.109 202.956C183.011 202.956 185.914 202.193 188.44 200.667L247.203 165.158V165.046C247.203 160.301 243.002 156.455 237.819 156.455Z" fill="#EEFFF4"/>
<path d="M237.819 161.988C238.702 161.988 239.505 162.304 240.103 162.818L185.11 196.048C183.622 196.947 181.892 197.423 180.109 197.423C178.323 197.423 176.592 196.946 175.103 196.044L120.22 162.819C120.842 162.282 121.65 161.988 122.508 161.988H237.819ZM237.819 156.455H122.508C117.278 156.455 113.056 160.37 113.125 165.158L171.768 200.66C174.297 202.191 177.203 202.956 180.109 202.956C183.011 202.956 185.914 202.193 188.44 200.667L247.203 165.158V165.046C247.203 160.301 243.002 156.455 237.819 156.455Z" fill="#25AD49"/>
<path d="M236.031 162.045C238.858 162.045 241.158 164.345 241.158 167.172V231.274C241.158 234.101 238.858 236.401 236.031 236.401H124.173C121.345 236.401 119.045 234.101 119.045 231.274V167.172C119.045 164.345 121.345 162.045 124.173 162.045H236.031ZM236.031 156H124.173C118.002 156 113 161.002 113 167.172V231.274C113 237.444 118.002 242.446 124.173 242.446H236.031C242.201 242.446 247.203 237.444 247.203 231.274V167.172C247.203 161.002 242.201 156 236.031 156Z" fill="#25AD49"/>
<rect x="69.5" y="375.5" width="29" height="29" rx="2.5" stroke="#303030"/>
<rect x="269.5" y="375.5" width="29" height="29" rx="2.5" stroke="#303030"/>
<rect x="229.5" y="375.5" width="29" height="29" rx="2.5" stroke="#303030"/>
<rect x="189.5" y="375.5" width="29" height="29" rx="2.5" stroke="#303030"/>
<rect x="148.5" y="375.5" width="29" height="29" rx="2.5" stroke="#303030"/>
<rect x="109.5" y="375.5" width="29" height="29" rx="2.5" stroke="#303030"/>
<rect x="113" y="439" width="131" height="40" rx="20" fill="#25AD49"/>
<path d="M136.402 450.909L139.566 460.855H139.688L142.858 450.909H145.926L141.414 464H137.847L133.328 450.909H136.402ZM150.818 464.192C149.808 464.192 148.939 463.987 148.21 463.578C147.486 463.165 146.927 462.581 146.535 461.827C146.143 461.068 145.947 460.171 145.947 459.136C145.947 458.126 146.143 457.239 146.535 456.477C146.927 455.714 147.479 455.119 148.191 454.693C148.907 454.267 149.746 454.054 150.709 454.054C151.357 454.054 151.96 454.158 152.518 454.367C153.081 454.572 153.571 454.881 153.988 455.294C154.41 455.707 154.738 456.227 154.973 456.854C155.207 457.476 155.324 458.205 155.324 459.04V459.788H147.034V458.1H152.761C152.761 457.708 152.676 457.361 152.505 457.058C152.335 456.756 152.098 456.519 151.796 456.349C151.498 456.174 151.15 456.087 150.754 456.087C150.341 456.087 149.974 456.183 149.655 456.374C149.339 456.562 149.092 456.815 148.913 457.135C148.734 457.45 148.642 457.802 148.638 458.19V459.794C148.638 460.28 148.728 460.7 148.907 461.053C149.09 461.407 149.348 461.68 149.68 461.871C150.013 462.063 150.407 462.159 150.863 462.159C151.165 462.159 151.442 462.116 151.694 462.031C151.945 461.946 152.16 461.818 152.339 461.648C152.518 461.477 152.655 461.268 152.748 461.021L155.267 461.188C155.139 461.793 154.877 462.321 154.481 462.773C154.089 463.22 153.581 463.57 152.959 463.821C152.341 464.068 151.628 464.192 150.818 464.192ZM157.101 464V454.182H159.741V455.895H159.843C160.022 455.286 160.323 454.825 160.745 454.514C161.167 454.199 161.652 454.041 162.202 454.041C162.339 454.041 162.486 454.05 162.643 454.067C162.801 454.084 162.939 454.107 163.059 454.137V456.553C162.931 456.515 162.754 456.481 162.528 456.451C162.302 456.421 162.096 456.406 161.908 456.406C161.508 456.406 161.15 456.494 160.834 456.668C160.523 456.839 160.276 457.077 160.093 457.384C159.914 457.691 159.824 458.045 159.824 458.445V464H157.101ZM164.467 464V454.182H167.19V464H164.467ZM165.834 452.916C165.43 452.916 165.082 452.782 164.793 452.513C164.507 452.241 164.364 451.915 164.364 451.536C164.364 451.161 164.507 450.839 164.793 450.57C165.082 450.298 165.43 450.161 165.834 450.161C166.239 450.161 166.584 450.298 166.87 450.57C167.16 450.839 167.305 451.161 167.305 451.536C167.305 451.915 167.16 452.241 166.87 452.513C166.584 452.782 166.239 452.916 165.834 452.916ZM174.651 454.182V456.227H168.591V454.182H174.651ZM169.978 464V453.472C169.978 452.761 170.117 452.17 170.394 451.702C170.675 451.233 171.058 450.881 171.544 450.647C172.03 450.413 172.582 450.295 173.2 450.295C173.617 450.295 173.999 450.327 174.344 450.391C174.693 450.455 174.953 450.513 175.124 450.564L174.638 452.609C174.531 452.575 174.399 452.543 174.242 452.513C174.088 452.484 173.93 452.469 173.769 452.469C173.368 452.469 173.089 452.562 172.931 452.75C172.774 452.933 172.695 453.191 172.695 453.523V464H169.978ZM177.995 467.682C177.65 467.682 177.326 467.654 177.024 467.599C176.725 467.548 176.478 467.482 176.282 467.401L176.896 465.368C177.215 465.466 177.503 465.519 177.759 465.528C178.019 465.536 178.242 465.477 178.43 465.349C178.622 465.221 178.777 465.004 178.897 464.697L179.056 464.281L175.534 454.182H178.398L180.431 461.392H180.533L182.585 454.182H185.468L181.652 465.061C181.468 465.589 181.219 466.05 180.904 466.442C180.593 466.838 180.198 467.143 179.721 467.356C179.244 467.573 178.669 467.682 177.995 467.682ZM203.108 457.455C203.108 458.882 202.837 460.097 202.296 461.098C201.759 462.099 201.026 462.864 200.097 463.393C199.173 463.917 198.133 464.179 196.978 464.179C195.815 464.179 194.771 463.915 193.846 463.386C192.921 462.858 192.19 462.093 191.653 461.092C191.117 460.09 190.848 458.878 190.848 457.455C190.848 456.027 191.117 454.812 191.653 453.811C192.19 452.81 192.921 452.047 193.846 451.523C194.771 450.994 195.815 450.73 196.978 450.73C198.133 450.73 199.173 450.994 200.097 451.523C201.026 452.047 201.759 452.81 202.296 453.811C202.837 454.812 203.108 456.027 203.108 457.455ZM200.302 457.455C200.302 456.53 200.163 455.75 199.886 455.115C199.614 454.48 199.228 453.999 198.729 453.67C198.231 453.342 197.647 453.178 196.978 453.178C196.309 453.178 195.725 453.342 195.227 453.67C194.728 453.999 194.34 454.48 194.063 455.115C193.791 455.75 193.654 456.53 193.654 457.455C193.654 458.379 193.791 459.159 194.063 459.794C194.34 460.429 194.728 460.911 195.227 461.239C195.725 461.567 196.309 461.731 196.978 461.731C197.647 461.731 198.231 461.567 198.729 461.239C199.228 460.911 199.614 460.429 199.886 459.794C200.163 459.159 200.302 458.379 200.302 457.455ZM204.062 453.191V450.909H214.813V453.191H210.806V464H208.07V453.191H204.062ZM216.584 464V450.909H221.749C222.742 450.909 223.588 451.099 224.286 451.478C224.985 451.853 225.518 452.375 225.884 453.044C226.255 453.709 226.441 454.476 226.441 455.345C226.441 456.214 226.253 456.982 225.878 457.646C225.503 458.311 224.96 458.829 224.248 459.2C223.541 459.57 222.684 459.756 221.679 459.756H218.387V457.538H221.231C221.764 457.538 222.203 457.446 222.548 457.263C222.897 457.075 223.157 456.817 223.328 456.489C223.502 456.157 223.59 455.776 223.59 455.345C223.59 454.911 223.502 454.531 223.328 454.207C223.157 453.879 222.897 453.626 222.548 453.447C222.198 453.263 221.755 453.172 221.218 453.172H219.352V464H216.584Z" fill="white"/>
<path d="M64.8591 517H62.6191L57.5471 509.336V517H55.3071V505.816H57.5471L62.6191 513.496V505.816H64.8591V517ZM71.0088 517.144C70.1554 517.144 69.3874 516.957 68.7048 516.584C68.0221 516.2 67.4834 515.661 67.0888 514.968C66.7048 514.275 66.5128 513.475 66.5128 512.568C66.5128 511.661 66.7101 510.861 67.1048 510.168C67.5101 509.475 68.0594 508.941 68.7528 508.568C69.4461 508.184 70.2194 507.992 71.0728 507.992C71.9261 507.992 72.6994 508.184 73.3928 508.568C74.0861 508.941 74.6301 509.475 75.0248 510.168C75.4301 510.861 75.6328 511.661 75.6328 512.568C75.6328 513.475 75.4248 514.275 75.0087 514.968C74.6034 515.661 74.0488 516.2 73.3448 516.584C72.6514 516.957 71.8728 517.144 71.0088 517.144ZM71.0088 515.192C71.4141 515.192 71.7928 515.096 72.1448 514.904C72.5074 514.701 72.7954 514.403 73.0088 514.008C73.2221 513.613 73.3288 513.133 73.3288 512.568C73.3288 511.725 73.1048 511.08 72.6568 510.632C72.2194 510.173 71.6808 509.944 71.0408 509.944C70.4008 509.944 69.8621 510.173 69.4248 510.632C68.9981 511.08 68.7848 511.725 68.7848 512.568C68.7848 513.411 68.9928 514.061 69.4088 514.52C69.8354 514.968 70.3688 515.192 71.0088 515.192ZM79.8839 509.976V514.264C79.8839 514.563 79.9532 514.781 80.0919 514.92C80.2412 515.048 80.4865 515.112 80.8279 515.112H81.8679V517H80.4599C78.5719 517 77.6279 516.083 77.6279 514.248V509.976H76.5719V508.136H77.6279V505.944H79.8839V508.136H81.8679V509.976H79.8839ZM93.0515 517L90.5875 512.648H89.5315V517H87.2915V505.832H91.4835C92.3475 505.832 93.0835 505.987 93.6915 506.296C94.2995 506.595 94.7528 507.005 95.0515 507.528C95.3608 508.04 95.5155 508.616 95.5155 509.256C95.5155 509.992 95.3022 510.659 94.8755 511.256C94.4488 511.843 93.8142 512.248 92.9715 512.472L95.6435 517H93.0515ZM89.5315 510.968H91.4035C92.0115 510.968 92.4648 510.824 92.7635 510.536C93.0622 510.237 93.2115 509.827 93.2115 509.304C93.2115 508.792 93.0622 508.397 92.7635 508.12C92.4648 507.832 92.0115 507.688 91.4035 507.688H89.5315V510.968ZM105.782 512.376C105.782 512.696 105.76 512.984 105.718 513.24H99.2375C99.2908 513.88 99.5148 514.381 99.9095 514.744C100.304 515.107 100.79 515.288 101.366 515.288C102.198 515.288 102.79 514.931 103.142 514.216H105.558C105.302 515.069 104.811 515.773 104.086 516.328C103.36 516.872 102.47 517.144 101.414 517.144C100.56 517.144 99.7922 516.957 99.1095 516.584C98.4375 516.2 97.9095 515.661 97.5255 514.968C97.1522 514.275 96.9655 513.475 96.9655 512.568C96.9655 511.651 97.1522 510.845 97.5255 510.152C97.8988 509.459 98.4215 508.925 99.0935 508.552C99.7655 508.179 100.539 507.992 101.414 507.992C102.256 507.992 103.008 508.173 103.67 508.536C104.342 508.899 104.859 509.416 105.222 510.088C105.595 510.749 105.782 511.512 105.782 512.376ZM103.462 511.736C103.451 511.16 103.243 510.701 102.838 510.36C102.432 510.008 101.936 509.832 101.35 509.832C100.795 509.832 100.326 510.003 99.9415 510.344C99.5682 510.675 99.3388 511.139 99.2535 511.736H103.462ZM106.84 512.568C106.84 511.651 107.027 510.851 107.401 510.168C107.774 509.475 108.291 508.941 108.953 508.568C109.614 508.184 110.371 507.992 111.225 507.992C112.323 507.992 113.23 508.269 113.945 508.824C114.67 509.368 115.155 510.136 115.401 511.128H112.985C112.857 510.744 112.638 510.445 112.329 510.232C112.03 510.008 111.657 509.896 111.209 509.896C110.569 509.896 110.062 510.131 109.689 510.6C109.315 511.059 109.129 511.715 109.129 512.568C109.129 513.411 109.315 514.067 109.689 514.536C110.062 514.995 110.569 515.224 111.209 515.224C112.115 515.224 112.707 514.819 112.985 514.008H115.401C115.155 514.968 114.67 515.731 113.945 516.296C113.219 516.861 112.313 517.144 111.225 517.144C110.371 517.144 109.614 516.957 108.953 516.584C108.291 516.2 107.774 515.667 107.401 514.984C107.027 514.291 106.84 513.485 106.84 512.568ZM125.282 512.376C125.282 512.696 125.26 512.984 125.218 513.24H118.738C118.791 513.88 119.015 514.381 119.41 514.744C119.804 515.107 120.29 515.288 120.866 515.288C121.698 515.288 122.29 514.931 122.642 514.216H125.058C124.802 515.069 124.311 515.773 123.586 516.328C122.86 516.872 121.97 517.144 120.914 517.144C120.06 517.144 119.292 516.957 118.61 516.584C117.938 516.2 117.41 515.661 117.026 514.968C116.652 514.275 116.465 513.475 116.465 512.568C116.465 511.651 116.652 510.845 117.026 510.152C117.399 509.459 117.922 508.925 118.594 508.552C119.266 508.179 120.039 507.992 120.914 507.992C121.756 507.992 122.508 508.173 123.17 508.536C123.842 508.899 124.359 509.416 124.722 510.088C125.095 510.749 125.282 511.512 125.282 512.376ZM122.962 511.736C122.951 511.16 122.743 510.701 122.338 510.36C121.932 510.008 121.436 509.832 120.85 509.832C120.295 509.832 119.826 510.003 119.442 510.344C119.068 510.675 118.839 511.139 118.754 511.736H122.962ZM130.613 514.936L132.853 508.136H135.237L131.957 517H129.237L125.973 508.136H128.373L130.613 514.936ZM137.631 507.08C137.236 507.08 136.905 506.957 136.639 506.712C136.383 506.456 136.255 506.141 136.255 505.768C136.255 505.395 136.383 505.085 136.639 504.84C136.905 504.584 137.236 504.456 137.631 504.456C138.025 504.456 138.351 504.584 138.607 504.84C138.873 505.085 139.007 505.395 139.007 505.768C139.007 506.141 138.873 506.456 138.607 506.712C138.351 506.957 138.025 507.08 137.631 507.08ZM138.735 508.136V517H136.495V508.136H138.735ZM149.188 512.376C149.188 512.696 149.166 512.984 149.124 513.24H142.644C142.697 513.88 142.921 514.381 143.316 514.744C143.71 515.107 144.196 515.288 144.772 515.288C145.604 515.288 146.196 514.931 146.548 514.216H148.964C148.708 515.069 148.217 515.773 147.492 516.328C146.766 516.872 145.876 517.144 144.82 517.144C143.966 517.144 143.198 516.957 142.516 516.584C141.844 516.2 141.316 515.661 140.932 514.968C140.558 514.275 140.372 513.475 140.372 512.568C140.372 511.651 140.558 510.845 140.932 510.152C141.305 509.459 141.828 508.925 142.5 508.552C143.172 508.179 143.945 507.992 144.82 507.992C145.662 507.992 146.414 508.173 147.076 508.536C147.748 508.899 148.265 509.416 148.628 510.088C149.001 510.749 149.188 511.512 149.188 512.376ZM146.868 511.736C146.857 511.16 146.649 510.701 146.244 510.36C145.838 510.008 145.342 509.832 144.756 509.832C144.201 509.832 143.732 510.003 143.348 510.344C142.974 510.675 142.745 511.139 142.66 511.736H146.868ZM150.247 512.536C150.247 511.64 150.423 510.845 150.775 510.152C151.137 509.459 151.628 508.925 152.247 508.552C152.865 508.179 153.553 507.992 154.311 507.992C154.887 507.992 155.436 508.12 155.959 508.376C156.481 508.621 156.897 508.952 157.207 509.368V505.16H159.479V517H157.207V515.688C156.929 516.125 156.54 516.477 156.039 516.744C155.537 517.011 154.956 517.144 154.295 517.144C153.548 517.144 152.865 516.952 152.247 516.568C151.628 516.184 151.137 515.645 150.775 514.952C150.423 514.248 150.247 513.443 150.247 512.536ZM157.223 512.568C157.223 512.024 157.116 511.56 156.903 511.176C156.689 510.781 156.401 510.483 156.039 510.28C155.676 510.067 155.287 509.96 154.871 509.96C154.455 509.96 154.071 510.061 153.719 510.264C153.367 510.467 153.079 510.765 152.855 511.16C152.641 511.544 152.535 512.003 152.535 512.536C152.535 513.069 152.641 513.539 152.855 513.944C153.079 514.339 153.367 514.643 153.719 514.856C154.081 515.069 154.465 515.176 154.871 515.176C155.287 515.176 155.676 515.075 156.039 514.872C156.401 514.659 156.689 514.36 156.903 513.976C157.116 513.581 157.223 513.112 157.223 512.568ZM170.663 517.112C169.618 517.112 168.658 516.867 167.783 516.376C166.908 515.885 166.215 515.208 165.703 514.344C165.191 513.469 164.935 512.483 164.935 511.384C164.935 510.296 165.191 509.32 165.703 508.456C166.215 507.581 166.908 506.899 167.783 506.408C168.658 505.917 169.618 505.672 170.663 505.672C171.719 505.672 172.679 505.917 173.543 506.408C174.418 506.899 175.106 507.581 175.607 508.456C176.119 509.32 176.375 510.296 176.375 511.384C176.375 512.483 176.119 513.469 175.607 514.344C175.106 515.208 174.418 515.885 173.543 516.376C172.668 516.867 171.708 517.112 170.663 517.112ZM170.663 515.112C171.335 515.112 171.927 514.963 172.439 514.664C172.951 514.355 173.351 513.917 173.639 513.352C173.927 512.787 174.071 512.131 174.071 511.384C174.071 510.637 173.927 509.987 173.639 509.432C173.351 508.867 172.951 508.435 172.439 508.136C171.927 507.837 171.335 507.688 170.663 507.688C169.991 507.688 169.394 507.837 168.871 508.136C168.359 508.435 167.959 508.867 167.671 509.432C167.383 509.987 167.239 510.637 167.239 511.384C167.239 512.131 167.383 512.787 167.671 513.352C167.959 513.917 168.359 514.355 168.871 514.664C169.394 514.963 169.991 515.112 170.663 515.112ZM185.642 505.832V507.64H182.666V517H180.426V507.64H177.45V505.832H185.642ZM195.42 509.288C195.42 509.885 195.276 510.445 194.988 510.968C194.711 511.491 194.268 511.912 193.66 512.232C193.063 512.552 192.305 512.712 191.388 512.712H189.516V517H187.276V505.832H191.388C192.252 505.832 192.988 505.981 193.596 506.28C194.204 506.579 194.657 506.989 194.956 507.512C195.265 508.035 195.42 508.627 195.42 509.288ZM191.292 510.904C191.911 510.904 192.369 510.765 192.668 510.488C192.967 510.2 193.116 509.8 193.116 509.288C193.116 508.2 192.508 507.656 191.292 507.656H189.516V510.904H191.292ZM203.943 505.448C205.052 505.448 205.943 505.752 206.615 506.36C207.297 506.957 207.639 507.784 207.639 508.84C207.639 509.885 207.303 510.685 206.631 511.24C205.959 511.784 205.068 512.056 203.959 512.056L203.895 513.288H201.927L201.847 510.568H202.567C203.495 510.568 204.209 510.445 204.711 510.2C205.212 509.955 205.463 509.507 205.463 508.856C205.463 508.387 205.324 508.013 205.047 507.736C204.78 507.459 204.412 507.32 203.943 507.32C203.452 507.32 203.068 507.453 202.791 507.72C202.524 507.987 202.391 508.355 202.391 508.824H200.279C200.268 508.173 200.407 507.592 200.695 507.08C200.983 506.568 201.404 506.168 201.959 505.88C202.524 505.592 203.185 505.448 203.943 505.448ZM202.903 517.112C202.497 517.112 202.161 516.989 201.895 516.744C201.639 516.488 201.511 516.173 201.511 515.8C201.511 515.427 201.639 515.117 201.895 514.872C202.161 514.616 202.497 514.488 202.903 514.488C203.297 514.488 203.623 514.616 203.879 514.872C204.135 515.117 204.263 515.427 204.263 515.8C204.263 516.173 204.135 516.488 203.879 516.744C203.623 516.989 203.297 517.112 202.903 517.112Z" fill="#929292"/>
<path d="M224.726 517.112C223.947 517.112 223.243 516.979 222.614 516.712C221.995 516.445 221.504 516.061 221.142 515.56C220.779 515.059 220.592 514.467 220.582 513.784H222.982C223.014 514.243 223.174 514.605 223.462 514.872C223.76 515.139 224.166 515.272 224.678 515.272C225.2 515.272 225.611 515.149 225.91 514.904C226.208 514.648 226.358 514.317 226.358 513.912C226.358 513.581 226.256 513.309 226.054 513.096C225.851 512.883 225.595 512.717 225.286 512.6C224.987 512.472 224.571 512.333 224.038 512.184C223.312 511.971 222.72 511.763 222.262 511.56C221.814 511.347 221.424 511.032 221.094 510.616C220.774 510.189 220.614 509.624 220.614 508.92C220.614 508.259 220.779 507.683 221.11 507.192C221.44 506.701 221.904 506.328 222.502 506.072C223.099 505.805 223.782 505.672 224.55 505.672C225.702 505.672 226.635 505.955 227.35 506.52C228.075 507.075 228.475 507.853 228.55 508.856H226.086C226.064 508.472 225.899 508.157 225.59 507.912C225.291 507.656 224.891 507.528 224.39 507.528C223.952 507.528 223.6 507.64 223.334 507.864C223.078 508.088 222.95 508.413 222.95 508.84C222.95 509.139 223.046 509.389 223.238 509.592C223.44 509.784 223.686 509.944 223.974 510.072C224.272 510.189 224.688 510.328 225.222 510.488C225.947 510.701 226.539 510.915 226.998 511.128C227.456 511.341 227.851 511.661 228.182 512.088C228.512 512.515 228.678 513.075 228.678 513.768C228.678 514.365 228.523 514.92 228.214 515.432C227.904 515.944 227.451 516.355 226.854 516.664C226.256 516.963 225.547 517.112 224.726 517.112ZM238.86 512.376C238.86 512.696 238.838 512.984 238.796 513.24H232.316C232.369 513.88 232.593 514.381 232.988 514.744C233.382 515.107 233.868 515.288 234.444 515.288C235.276 515.288 235.868 514.931 236.22 514.216H238.636C238.38 515.069 237.889 515.773 237.164 516.328C236.438 516.872 235.548 517.144 234.492 517.144C233.638 517.144 232.87 516.957 232.188 516.584C231.516 516.2 230.988 515.661 230.604 514.968C230.23 514.275 230.044 513.475 230.044 512.568C230.044 511.651 230.23 510.845 230.604 510.152C230.977 509.459 231.5 508.925 232.172 508.552C232.844 508.179 233.617 507.992 234.492 507.992C235.334 507.992 236.086 508.173 236.748 508.536C237.42 508.899 237.937 509.416 238.3 510.088C238.673 510.749 238.86 511.512 238.86 512.376ZM236.54 511.736C236.529 511.16 236.321 510.701 235.916 510.36C235.51 510.008 235.014 509.832 234.428 509.832C233.873 509.832 233.404 510.003 233.02 510.344C232.646 510.675 232.417 511.139 232.332 511.736H236.54ZM245.407 508.008C246.463 508.008 247.316 508.344 247.967 509.016C248.617 509.677 248.943 510.605 248.943 511.8V517H246.703V512.104C246.703 511.4 246.527 510.861 246.175 510.488C245.823 510.104 245.343 509.912 244.735 509.912C244.116 509.912 243.625 510.104 243.263 510.488C242.911 510.861 242.735 511.4 242.735 512.104V517H240.495V508.136H242.735V509.24C243.033 508.856 243.412 508.557 243.871 508.344C244.34 508.12 244.852 508.008 245.407 508.008ZM250.497 512.536C250.497 511.64 250.673 510.845 251.025 510.152C251.387 509.459 251.878 508.925 252.497 508.552C253.115 508.179 253.803 507.992 254.561 507.992C255.137 507.992 255.686 508.12 256.209 508.376C256.731 508.621 257.147 508.952 257.457 509.368V505.16H259.729V517H257.457V515.688C257.179 516.125 256.79 516.477 256.289 516.744C255.787 517.011 255.206 517.144 254.545 517.144C253.798 517.144 253.115 516.952 252.497 516.568C251.878 516.184 251.387 515.645 251.025 514.952C250.673 514.248 250.497 513.443 250.497 512.536ZM257.473 512.568C257.473 512.024 257.366 511.56 257.153 511.176C256.939 510.781 256.651 510.483 256.289 510.28C255.926 510.067 255.537 509.96 255.121 509.96C254.705 509.96 254.321 510.061 253.969 510.264C253.617 510.467 253.329 510.765 253.105 511.16C252.891 511.544 252.785 512.003 252.785 512.536C252.785 513.069 252.891 513.539 253.105 513.944C253.329 514.339 253.617 514.643 253.969 514.856C254.331 515.069 254.715 515.176 255.121 515.176C255.537 515.176 255.926 515.075 256.289 514.872C256.651 514.659 256.939 514.36 257.153 513.976C257.366 513.581 257.473 513.112 257.473 512.568ZM272.577 514.872H268.129L267.393 517H265.041L269.057 505.816H271.665L275.681 517H273.313L272.577 514.872ZM271.969 513.08L270.353 508.408L268.737 513.08H271.969ZM280.654 507.992C281.315 507.992 281.897 508.125 282.398 508.392C282.899 508.648 283.294 508.984 283.582 509.4V508.136H285.838V517.064C285.838 517.885 285.673 518.616 285.342 519.256C285.011 519.907 284.515 520.419 283.854 520.792C283.193 521.176 282.393 521.368 281.454 521.368C280.195 521.368 279.161 521.075 278.35 520.488C277.55 519.901 277.097 519.101 276.99 518.088H279.214C279.331 518.493 279.582 518.813 279.966 519.048C280.361 519.293 280.835 519.416 281.39 519.416C282.041 519.416 282.569 519.219 282.974 518.824C283.379 518.44 283.582 517.853 283.582 517.064V515.688C283.294 516.104 282.894 516.451 282.382 516.728C281.881 517.005 281.305 517.144 280.654 517.144C279.907 517.144 279.225 516.952 278.606 516.568C277.987 516.184 277.497 515.645 277.134 514.952C276.782 514.248 276.606 513.443 276.606 512.536C276.606 511.64 276.782 510.845 277.134 510.152C277.497 509.459 277.982 508.925 278.59 508.552C279.209 508.179 279.897 507.992 280.654 507.992ZM283.582 512.568C283.582 512.024 283.475 511.56 283.262 511.176C283.049 510.781 282.761 510.483 282.398 510.28C282.035 510.067 281.646 509.96 281.23 509.96C280.814 509.96 280.43 510.061 280.078 510.264C279.726 510.467 279.438 510.765 279.214 511.16C279.001 511.544 278.894 512.003 278.894 512.536C278.894 513.069 279.001 513.539 279.214 513.944C279.438 514.339 279.726 514.643 280.078 514.856C280.441 515.069 280.825 515.176 281.23 515.176C281.646 515.176 282.035 515.075 282.398 514.872C282.761 514.659 283.049 514.36 283.262 513.976C283.475 513.581 283.582 513.112 283.582 512.568ZM287.45 512.536C287.45 511.64 287.626 510.845 287.978 510.152C288.341 509.459 288.826 508.925 289.434 508.552C290.053 508.179 290.741 507.992 291.498 507.992C292.159 507.992 292.735 508.125 293.226 508.392C293.727 508.659 294.127 508.995 294.426 509.4V508.136H296.682V517H294.426V515.704C294.138 516.12 293.738 516.467 293.226 516.744C292.725 517.011 292.143 517.144 291.482 517.144C290.735 517.144 290.053 516.952 289.434 516.568C288.826 516.184 288.341 515.645 287.978 514.952C287.626 514.248 287.45 513.443 287.45 512.536ZM294.426 512.568C294.426 512.024 294.319 511.56 294.106 511.176C293.893 510.781 293.605 510.483 293.242 510.28C292.879 510.067 292.49 509.96 292.074 509.96C291.658 509.96 291.274 510.061 290.922 510.264C290.57 510.467 290.282 510.765 290.058 511.16C289.845 511.544 289.738 512.003 289.738 512.536C289.738 513.069 289.845 513.539 290.058 513.944C290.282 514.339 290.57 514.643 290.922 514.856C291.285 515.069 291.669 515.176 292.074 515.176C292.49 515.176 292.879 515.075 293.242 514.872C293.605 514.659 293.893 514.36 294.106 513.976C294.319 513.581 294.426 513.112 294.426 512.568ZM300.006 507.08C299.611 507.08 299.28 506.957 299.014 506.712C298.758 506.456 298.63 506.141 298.63 505.768C298.63 505.395 298.758 505.085 299.014 504.84C299.28 504.584 299.611 504.456 300.006 504.456C300.4 504.456 300.726 504.584 300.982 504.84C301.248 505.085 301.382 505.395 301.382 505.768C301.382 506.141 301.248 506.456 300.982 506.712C300.726 506.957 300.4 507.08 300.006 507.08ZM301.11 508.136V517H298.87V508.136H301.11ZM308.235 508.008C309.291 508.008 310.144 508.344 310.795 509.016C311.445 509.677 311.771 510.605 311.771 511.8V517H309.531V512.104C309.531 511.4 309.355 510.861 309.003 510.488C308.651 510.104 308.171 509.912 307.563 509.912C306.944 509.912 306.453 510.104 306.091 510.488C305.739 510.861 305.563 511.4 305.563 512.104V517H303.323V508.136H305.563V509.24C305.861 508.856 306.24 508.557 306.699 508.344C307.168 508.12 307.68 508.008 308.235 508.008Z" fill="#25AD49"/>
<path d="M219.766 518.6H312.795V519.4H219.766V518.6Z" fill="#25AD49"/>
</g>
<defs>
<clipPath id="clip0_225_30">
<rect width="360" height="800" rx="15" fill="white"/>
</clipPath>
</defs>
</svg>
